<?xml version="1.0" encoding="utf-8"?>
<!-- Generator: Adobe Illustrator 26.0.1, SVG Export Plug-In . SVG Version: 6.00 Build 0)  -->
<svg version="1.1" id="Layer_1" xmlns="http://www.w3.org/2000/svg" xmlns:xlink="http://www.w3.org/1999/xlink" x="0px" y="0px"
	 viewBox="0 0 52 52" style="enable-background:new 0 0 52 52;" xml:space="preserve">
<style type="text/css">
	.st0{fill:#00376C;}
</style>
<path class="st0" d="M18,21.1c0,0.5-0.3,0.8-0.8,0.9c-0.5-0.1-0.8-0.3-0.8-0.9c0-0.5,0.3-0.8,0.8-0.9C17.7,20.3,18,20.6,18,21.1z"/>
<path class="st0" d="M26.9,14.4c0,0.5-0.4,0.9-0.8,1c-0.7-0.1-0.9-0.5-0.9-1c0-0.5,0.3-0.8,0.8-0.9C26.6,13.5,26.9,13.9,26.9,14.4z"
	/>
<path class="st0" d="M35.3,21.1c-0.1,0.5-0.4,0.9-0.9,0.8c-0.5,0-0.9-0.4-0.8-1c0.1-0.5,0.4-0.8,0.9-0.7
	C34.9,20.3,35.2,20.7,35.3,21.1z"/>
<path class="st0" d="M37.6,42.4c-0.4-0.2-0.8-0.1-1.2-0.1c-7.3,0-14.6,0-22,0c-0.3,0-0.7,0-1,0.1c0.4-0.3,0.8-0.2,1.3-0.2
	c7.2,0,14.4,0,21.6,0C36.8,42.1,37.3,42,37.6,42.4z"/>
<path class="st0" d="M37.6,42.4c-8,0.1-16.1,0.2-24.1,0c0.4-0.3,0.8-0.2,1.3-0.2c7.2,0,14.4,0,21.6,0C36.8,42.1,37.3,42,37.6,42.4z"
	/>
<path class="st0" d="M42.3,13.5c0-2.7-2-4.6-4.7-4.9c-5.4,0-10.8-0.1-16.2-0.1c-2.5,0-5.1,0.1-7.6,0.1c-2.6,0.5-4.3,2.3-4.3,4.9
	c0,7.9,0,15.8,0,23.8c0,2.6,1.4,4.3,4,5.1c0.4-0.3,0.8-0.2,1.3-0.2c7.2,0,14.4,0,21.6,0c0.4,0,0.9-0.1,1.3,0.2
	c2.7-0.3,4.7-2.2,4.7-4.9C42.4,29.5,42.4,21.5,42.3,13.5z M34.4,35.1c0.3,0.4,0.7,0.8,1.1,1.4c-2-0.6-3-3-5.3-2.4
	c0.7,1.6,1.1,3.4,3.1,4.1c-2-0.1-2.2-0.3-3.1-2c-0.8-1.6-1.5-3.5-3.8-4c0.2,1.7-0.3,3.3,1,4.7c0.5,0.6,0.4,1.4,0.5,2.3
	c-0.8-0.2-0.8-0.7-0.8-1.2c0-0.8-0.5-1.3-1.3-1.4c-0.8,0-1.1,0.6-1.3,1.4c-0.1,0.5,0,1.1-0.5,1.5c-0.4-1.3-0.3-2.5,0.6-3
	c1-0.6,1-1.4,0.8-2.3c-0.1-0.6-0.1-1.3-0.2-2c-1.8,0.3-2.7,1.5-3.4,3c-0.7,1.4-1.2,3.1-3.7,3.1c2-1,2.4-2.7,3-4.3
	c-2.3-0.6-3.2,1.8-4.9,2.4c-0.1-0.6,0.6-0.8,0.5-1.5c-0.9-0.1-1.8-0.3-3.1-0.4c2.8-0.9,5.2-1.7,7.7-2.5c0.7-0.2,1.4-0.5,1.9-1
	c1.6-1.3,1.4-3-0.3-4.1c-0.9-0.5-1.8-1-2.7-1.4c-1.7-0.7-2.5-2.4-4.2-3.1c-0.7-0.3-0.8-1.3-0.4-2.1c0.4-0.8,1.2-1.1,2-0.8
	c0.8,0.3,1.4,1.1,1.1,2c-0.4,1.1,0.1,1.6,0.9,2c1.8,1,3.5,2.1,5.4,3.2c0.1-0.3,0.1-0.3,0.1-0.4c0.5-3-0.6-5.3-2.9-7.2
	c-1-0.8-1.8-1.9-2.7-2.9c-0.3-0.3-0.9-0.7-0.3-1.2c0.5-0.4,0.8,0.1,1.1,0.4c1.5,1.6,3,3.3,4.8,5.2c0-2,0.4-3.7-0.7-5.4
	c-0.5-0.8-0.4-1.8,0.5-2.5c0.7-0.5,1.5-0.5,2.1,0.2c0.8,0.8,0.8,1.7,0.1,2.5c-1.2,1.3-0.4,2.9-0.8,4.6c1.2-0.7,1.8-1.8,2.6-2.5
	c0.6-0.6,1.1-1.2,1.7-1.8c0.3-0.3,0.6-1,1.1-0.4c0.5,0.5-0.1,0.9-0.4,1.2c-1.2,1.3-2.3,2.6-3.6,3.9c-1,1-1.5,2.1-1.3,3.5
	c0.1,0.8,0,1.7,0,2.7c1.9-1.2,3.7-2.3,5.6-3.4c0.6-0.4,0.9-0.8,0.6-1.6c-0.5-1.1,0.1-1.9,1-2.2c0.9-0.4,1.8,0,2.2,1
	c0.5,1.1-0.2,1.7-1,2.3c-2.2,1.6-4.4,3.2-6.8,4.4C27,27.8,27,29,27.6,30.1c0.5,0.9,1.3,1.5,2.2,1.8c2.4,0.8,4.8,1.7,7.2,2.5
	C36.3,34.9,35.2,34.6,34.4,35.1z"/>
<path class="st0" d="M18,21.1c0,0.5-0.3,0.8-0.8,0.9c-0.5-0.1-0.8-0.3-0.8-0.9c0-0.5,0.3-0.8,0.8-0.9C17.7,20.3,18,20.6,18,21.1z"/>
<path class="st0" d="M26.9,14.4c0,0.5-0.4,0.9-0.8,1c-0.7-0.1-0.9-0.5-0.9-1c0-0.5,0.3-0.8,0.8-0.9C26.6,13.5,26.9,13.9,26.9,14.4z"
	/>
<path class="st0" d="M35.3,21.1c-0.1,0.5-0.4,0.9-0.9,0.8c-0.5,0-0.9-0.4-0.8-1c0.1-0.5,0.4-0.8,0.9-0.7
	C34.9,20.3,35.2,20.7,35.3,21.1z"/>
<path class="st0" d="M26.9,14.4c0,0.5-0.4,0.9-0.8,1c-0.7-0.1-0.9-0.5-0.9-1c0-0.5,0.3-0.8,0.8-0.9C26.6,13.5,26.9,13.9,26.9,14.4z"
	/>
<path class="st0" d="M35.3,21.1c-0.1,0.5-0.4,0.9-0.9,0.8c-0.5,0-0.9-0.4-0.8-1c0.1-0.5,0.4-0.8,0.9-0.7
	C34.9,20.3,35.2,20.7,35.3,21.1z"/>
<path class="st0" d="M18,21.1c0,0.5-0.3,0.8-0.8,0.9c-0.5-0.1-0.8-0.3-0.8-0.9c0-0.5,0.3-0.8,0.8-0.9C17.7,20.3,18,20.6,18,21.1z"/>
</svg>
