<?xml version="1.0" encoding="utf-8"?>
<!-- Generator: Adobe Illustrator 26.0.1, SVG Export Plug-In . SVG Version: 6.00 Build 0)  -->
<svg version="1.1" id="Layer_1" xmlns="http://www.w3.org/2000/svg" xmlns:xlink="http://www.w3.org/1999/xlink" x="0px" y="0px"
	 viewBox="0 0 52 52" style="enable-background:new 0 0 52 52;" xml:space="preserve">
<style type="text/css">
	.st0{fill:#1C3B6B;}
</style>
<g>
	<path class="st0" d="M33.3,16.8l-8.2,14.4c0.4,0.5,1,0.4,1.4-0.3l8.2-14.4C34.3,16,33.7,16.1,33.3,16.8z M33.3,16.8l-8.2,14.4
		c0.4,0.5,1,0.4,1.4-0.3l8.2-14.4C34.3,16,33.7,16.1,33.3,16.8z M33.3,16.8l-8.2,14.4c0.4,0.5,1,0.4,1.4-0.3l8.2-14.4
		C34.3,16,33.7,16.1,33.3,16.8z M33.3,16.8l-8.2,14.4c0.4,0.5,1,0.4,1.4-0.3l8.2-14.4C34.3,16,33.7,16.1,33.3,16.8z M41.3,5.5H11.4
		C7.9,5.5,5,8.3,5,11.9v28.2c0,3.5,2.9,6.4,6.4,6.4h29.9c3.5,0,6.4-2.9,6.4-6.4V11.9C47.7,8.3,44.8,5.5,41.3,5.5z M14.4,26h-0.7
		c-0.1,0-0.2,0-0.2-0.2v-3.4c0.1,0,0.3,0,0.4,0c0.3,0,0.6,0,0.9,0c0.9-0.1,1.7-0.5,2.1-1.4c0.2-0.3,0.2-0.7,0.2-1.1
		c0-0.2,0-0.4,0-0.6c0-1.4,0.5-2.6,1.3-3.7c0.9-1,2-1.7,3.3-1.9c0.3-0.1,0.5-0.1,0.8-0.1c1,0,2.1,0,3.1,0c0,0,0.1,0,0.1,0l0,0.1
		c0,0,0,0,0,0.1c0.3,0.5,0.6,1,0.9,1.5c0.8,1.3,1.6,2.5,2.3,3.8c0.1,0.1,0.1,0.1,0.1,0.2L27.1,23c-0.2-0.3-0.4-0.6-0.5-0.9
		c-0.9-1.5-1.8-3.1-2.7-4.6c-0.1-0.1-0.1-0.2-0.3-0.2c-0.3,0-0.7,0-1,0c-0.4,0-0.8,0.1-1.1,0.3c-0.5,0.3-0.8,0.8-0.9,1.4
		c0,0.1,0,0.2,0,0.4c0,0.4,0,0.8,0,1.3c-0.1,1.3-0.5,2.4-1.5,3.4c0,0-0.1,0.1-0.1,0.1c0.1,0.1,0.1,0.1,0.1,0.1
		c0.8,0.8,1.3,1.9,1.4,3.1c0.1,0.5,0.1,1,0,1.5c0,0.3,0,0.6,0.1,0.9c0.1,0.4,0.4,0.7,0.7,0.9c0.2,0.1,0.3,0.2,0.5,0.3
		c0,0.1-0.1,0.1-0.1,0.1c-0.7,0.8-1.6,1.6-2.6,2.2c0,0-0.1,0-0.1,0c-0.1,0-0.1,0-0.1,0c-0.1-0.1-0.3-0.2-0.4-0.3
		c-0.8-0.9-1.3-1.9-1.5-3.1C17,29.5,17,29,17,28.6c0-0.4,0-0.8-0.1-1.1c-0.3-0.9-0.9-1.4-1.8-1.5C14.9,26,14.6,26,14.4,26z
		 M25.1,36.9c0.1,0.2,0.3,0.5,0.4,0.6c0.1,0.1,0.2,0.2,0.3,0.2c0.1,0.1,0.2,0.2,0.3,0.2c0.5,0.4,0.6,0.8,0.6,1.4
		c0,0.2,0,0.4-0.1,0.5c0,0,0,0,0,0c0,0,0-0.1,0-0.1c0-0.2-0.1-0.5-0.1-0.7c-0.1-0.3-0.3-0.7-0.6-0.8c-0.2-0.1-0.5-0.3-0.7-0.4
		c0.1,0.8-0.1,1.4-0.6,1.9c0,0,0-0.1,0-0.1c0.1-0.3,0.2-0.6,0.2-0.9c0-0.3,0-0.7-0.1-1c-0.1-0.3-0.2-0.5-0.3-0.8c0,0,0,0,0,0
		c0,0,0,0,0,0c-0.4,0.4-0.9,0.7-1.4,1.1c-0.2,0.1-0.4,0.3-0.6,0.4c-0.3,0.2-0.6,0.5-0.8,0.8c-0.3,0.4-0.5,0.8-0.7,1.3
		c-0.1,0.2-0.1,0.3-0.2,0.5h0V41c0.2-0.8,0.4-1.5,0.8-2.1c0.2-0.2,0.4-0.4,0.5-0.6c0,0,0,0,0.1-0.1c-0.2-0.1-0.3-0.1-0.5-0.1
		c-0.4,0-0.8,0.1-1.1,0.3c-0.2,0.1-0.3,0.2-0.5,0.3c-0.2,0.1-0.3,0.2-0.5,0.3c-0.4,0.2-0.7,0.2-1.2,0.1c0.1,0,0.1,0,0.1,0
		c0.5,0,1-0.2,1.4-0.6c0.1-0.1,0.2-0.2,0.4-0.3c0.5-0.4,1-0.5,1.6-0.5c0.2,0,0.5,0.1,0.7,0c0.1,0,0.2-0.1,0.3-0.1
		c0.3-0.2,0.5-0.4,0.8-0.6c0.3-0.2,0.5-0.5,0.6-0.9v0c0,0,0,0,0,0c0,0,0,0-0.1,0c-0.4,0.2-0.7,0.2-1.1,0.2c-0.3,0-0.6,0-0.9,0.1
		c-0.5,0.1-0.9,0.3-1.2,0.6c0,0,0,0-0.1,0c0-0.1,0-0.1,0.1-0.2c0.3-0.6,0.8-1,1.5-1.1c0.3-0.1,0.6-0.1,0.9-0.2
		c0.1,0,0.2-0.1,0.3-0.1c0.2-0.1,0.4-0.2,0.6-0.4c0.2-0.3,0.4-0.6,0.5-0.9c0,0-0.1,0-0.1,0c-0.5,0.3-1,0.5-1.5,0.6
		c-0.8,0.2-1.5,0.2-2.3,0.2c-0.5,0-1,0-1.5,0.1c-0.5,0.1-1.1,0.5-1.2,1.3c0,0.2,0,0.4-0.1,0.6c-0.1,0.4-0.3,0.7-0.7,0.9c0,0,0,0,0,0
		c0,0,0,0,0-0.1c0.3-0.3,0.4-0.7,0.4-1.1c0-0.1,0-0.2,0-0.4c0-0.3,0.1-0.6,0.2-0.9c0,0,0,0,0-0.1c-0.4,0.1-0.7,0.3-1,0.4
		c-0.3,0.2-0.6,0.4-0.8,0.7c-0.2,0.3-0.4,0.6-0.6,0.9c0.1-0.7,0.4-1.3,0.9-1.8c0.4-0.4,0.8-0.7,1.3-0.9c0.3-0.1,0.7-0.2,1-0.3
		c0.6-0.2,1.2-0.5,1.7-0.8c0.9-0.7,1.7-1.4,2.4-2.2c0.6-0.6,1.1-1.4,1.5-2.1c0.9-1.4,1.7-2.9,2.6-4.3c1.1-1.9,2.3-3.8,3.4-5.7
		l2.5-4.6c0.2-0.4,0.7-0.7,1.2-0.7l3.6,0.1h0L27.1,32.6c-0.5,0.8-0.9,1.6-1.5,2.3c-0.2,0.3-0.4,0.6-0.5,1
		C25.1,36.3,25.1,36.6,25.1,36.9z M33.3,32.3c0,0.2,0,0.3,0,0.5c0,0,0,0,0,0.1c0.1,0,0.1,0,0.2,0c0.1,0,0.1,0,0.1,0.1
		c0,0.3,0,0.7,0,1c0,0,0,0,0,0.1h-1.2v-1.2c0.1,0,0.2,0,0.3,0c0,0,0-0.1,0-0.1c0-0.3,0-0.5,0-0.8c0-0.1,0-0.3,0.1-0.4
		c0.2-0.2,0.4-0.4,0.5-0.6c0,0,0.1-0.1,0.1-0.1c-0.9-1.2-1.8-2.4-2.7-3.7c0.1-0.2,0.2-0.3,0.3-0.5c1,1.4,2.1,2.8,3.1,4.1
		c-0.2,0.3-0.5,0.6-0.7,0.8C33.3,31.9,33.2,32.1,33.3,32.3z M40,34c0,0-0.1,0-0.1,0h-0.9c-0.1,0-0.2,0-0.2-0.2v-0.2h-2.5
		c-0.2,0-0.3-0.1-0.4-0.2c-0.3-0.4-0.6-0.7-0.9-1c-0.1-0.1-0.2-0.3-0.2-0.4c0-0.6,0-1.2,0-1.7c0-0.1,0-0.2-0.1-0.3
		c-0.7-0.9-1.4-1.9-2.1-2.8c-0.3-0.4-0.5-0.7-0.8-1.1c-0.1-0.1-0.1-0.1,0-0.3c0.1-0.1,0.2-0.2,0.2-0.3c0,0,0.1,0.1,0.1,0.1
		c0.7,1,1.5,2,2.2,3c0.3,0.4,0.5,0.7,0.8,1.1c0.1,0.1,0.2,0.3,0.2,0.5c0,0.6,0,1.1,0,1.7c0,0.1,0,0.2,0.1,0.2
		c0.3,0.3,0.6,0.6,0.8,0.9c0.1,0.1,0.1,0.1,0.2,0.1c0.8,0,1.5,0,2.3,0c0,0,0.1,0,0.1,0c0-0.1,0-0.2,0-0.3h1.2C40,33,40,33.9,40,34z
		 M40.4,31h-1.2c0-0.1,0-0.1,0-0.2c0-0.1,0-0.1,0-0.2h-0.2c-0.7,0-1.3,0-2,0c-0.2,0-0.3-0.1-0.4-0.2c-1.3-1.8-2.6-3.5-3.9-5.3
		c-0.1-0.1-0.1-0.2-0.2-0.2c0-0.1-0.1-0.1,0-0.2c0.1-0.1,0.2-0.2,0.2-0.3c0.1,0.1,0.1,0.2,0.2,0.2c1,1.4,2,2.7,3,4
		c0.3,0.5,0.7,0.9,1,1.4c0.1,0.1,0.1,0.1,0.2,0.1c0.6,0,1.2,0,1.9,0h0.1v-0.3c0.1,0,1,0,1.2,0C40.5,30,40.5,30.9,40.4,31z
		 M26.4,30.8l8.2-14.4c-0.4-0.5-1-0.4-1.4,0.3l-8.2,14.4C25.4,31.7,26,31.5,26.4,30.8z M33.3,16.8l-8.2,14.4c0.4,0.5,1,0.4,1.4-0.3
		l8.2-14.4C34.3,16,33.7,16.1,33.3,16.8z M33.3,16.8l-8.2,14.4c0.4,0.5,1,0.4,1.4-0.3l8.2-14.4C34.3,16,33.7,16.1,33.3,16.8z"/>
	<g>
		<path class="st0" d="M26.8,15.4l-1-1.6c0,0,0,0,0,0.1C26.1,14.4,26.5,14.9,26.8,15.4z"/>
	</g>
</g>
</svg>
